<svg xmlns="http://www.w3.org/2000/svg" width="32" height="55" viewBox="0 0 32 55"><g transform="translate(-128 -118)"><g transform="translate(128 118)" fill="none" stroke="#e6f1fa" stroke-linejoin="round" stroke-width="1"><rect width="32" height="55" rx="8" stroke="none"/><rect x="0.5" y="0.5" width="31" height="54" rx="7.5" fill="none"/></g><path d="M613.827,443.474l-5.293,4.914a.883.883,0,0,0,0,1.313,1.055,1.055,0,0,0,1.414,0l6-5.571a.882.882,0,0,0,0-1.314l-6-5.571a1.055,1.055,0,0,0-1.414,0,.883.883,0,0,0,0,1.313Z" transform="translate(756.242 588.973) rotate(180)" fill="#f05a4e"/></g></svg>