<svg id="Call" xmlns="http://www.w3.org/2000/svg" width="28" height="28" viewBox="0 0 28 28">
  <g id="Group_12705" data-name="Group 12705" transform="translate(0 0.221)">
    <g id="phone">
      <g id="Group_14224" data-name="Group 14224" transform="translate(19795 23342.779)">
        <g id="Group_14223" data-name="Group 14223" transform="translate(-1 -82)">
          <g id="Group_14218" data-name="Group 14218" transform="translate(-20779 -23293)">
            <g id="Group_12705-2" data-name="Group 12705" transform="translate(985 32.221)">
              <g id="phone-2" data-name="phone">
                <g id="form" transform="translate(0 -0.221)" fill="none" stroke="#1aad1c" stroke-linejoin="round" stroke-width="1">
                  <rect width="28" height="28" rx="8" stroke="none"/>
                  <rect x="0.5" y="0.5" width="27" height="27" rx="7.5" fill="none"/>
                </g>
              </g>
            </g>
          </g>
          <g id="Group_14221" data-name="Group 14221" transform="translate(-0.198 0.198)">
            <path id="Form_41" data-name="Form 41" d="M1162,457.355a.653.653,0,0,0-.553-.675,9.036,9.036,0,0,1-1.972-.491.65.65,0,0,0-.684.144l-.826.825a.652.652,0,0,1-.782.105,11.049,11.049,0,0,1-4.148-4.141.649.649,0,0,1,.105-.78l.824-.822a.65.65,0,0,0,.146-.687,8.972,8.972,0,0,1-.49-1.961.652.652,0,0,0-.657-.559h-1.952a.653.653,0,0,0-.48.212.644.644,0,0,0-.168.486,12.2,12.2,0,0,0,1.9,5.352,12.037,12.037,0,0,0,3.709,3.7,12.233,12.233,0,0,0,5.32,1.892.65.65,0,0,0,.709-.652Zm1.3.007V459.3a1.951,1.951,0,0,1-2.139,1.948,13.537,13.537,0,0,1-5.894-2.092,13.32,13.32,0,0,1-4.1-4.092,13.5,13.5,0,0,1-2.1-5.927,1.95,1.95,0,0,1,1.943-2.124h1.945a1.952,1.952,0,0,1,1.953,1.682,7.678,7.678,0,0,0,.42,1.682,1.948,1.948,0,0,1-.442,2.059l-.467.466a9.76,9.76,0,0,0,2.984,2.979l.469-.468a1.954,1.954,0,0,1,2.058-.439,7.725,7.725,0,0,0,1.692.42A1.95,1.95,0,0,1,1163.306,457.363Z" transform="translate(-20936.186 -23701.137)" fill="#1aad1c"/>
          </g>
        </g>
      </g>
    </g>
  </g>
</svg>
