<svg xmlns="http://www.w3.org/2000/svg" width="28" height="28" viewBox="0 0 28 28"><g transform="translate(8696 11506)"><g transform="translate(-8696.346 -11505.779)"><g transform="translate(0.346 -0.22)"><g fill="none" stroke="#c3d8e8" stroke-linejoin="round" stroke-width="1"><rect width="28" height="28" rx="8" stroke="none"/><rect x="0.5" y="0.5" width="27" height="27" rx="7.5" fill="none"/></g></g></g><g transform="translate(-8689.868 -11499.625)"><path d="M14.375,15.466H1.358a4,4,0,0,1-.437-.152,1.47,1.47,0,0,1-.876-1.4q0-5.788,0-11.576c0-.052,0-.1,0-.153a1.479,1.479,0,0,1,.317-.818A1.551,1.551,0,0,1,1.626.768h.783c.011-.027.019-.036.019-.045A3.751,3.751,0,0,1,2.437.31a.85.85,0,0,1,.085-.319.46.46,0,0,1,.49-.2.465.465,0,0,1,.369.441c.01.171,0,.344,0,.522H4.3a.2.2,0,0,0,.011-.04A3.627,3.627,0,0,1,4.314.306a.835.835,0,0,1,.1-.33.442.442,0,0,1,.5-.171.447.447,0,0,1,.347.423c.012.175,0,.353,0,.532h5.229V.554c0-.1,0-.2,0-.306a.465.465,0,0,1,.464-.462.47.47,0,0,1,.478.47c.007.167,0,.334,0,.505h.934c0-.147,0-.284,0-.421a.869.869,0,0,1,.035-.255.461.461,0,0,1,.5-.293A.47.47,0,0,1,13.3.243c.009.171,0,.343,0,.528h.83a1.548,1.548,0,0,1,.946.308,1.517,1.517,0,0,1,.615,1.292q-.005,5.75,0,11.5c0,.066,0,.133,0,.2a1.492,1.492,0,0,1-.522,1.027A1.978,1.978,0,0,1,14.375,15.466ZM.988,4.63v9.26a.6.6,0,0,0,.686.651H14.062a.6.6,0,0,0,.689-.679V4.63ZM2.447,1.7H1.664a.6.6,0,0,0-.679.661V3.551c0,.044.006.088.01.138H14.742c0-.511.014-1.015-.007-1.517a.449.449,0,0,0-.384-.433c-.34-.048-.688-.04-1.044-.056a4.065,4.065,0,0,1,0,.5.75.75,0,0,1-.119.337.423.423,0,0,1-.491.143.417.417,0,0,1-.324-.389c-.011-.186,0-.373,0-.561h-.925a.227.227,0,0,0-.011.043c0,.143.006.286,0,.429a.735.735,0,0,1-.064.264.456.456,0,0,1-.5.226.439.439,0,0,1-.369-.4c-.011-.185,0-.373,0-.562H5.26c0,.168,0,.326,0,.483a.473.473,0,1,1-.946.026c-.01-.167,0-.335,0-.506H3.386a3.683,3.683,0,0,1,0,.47.745.745,0,0,1-.118.337.419.419,0,0,1-.491.143.409.409,0,0,1-.322-.373C2.435,2.094,2.447,1.91,2.447,1.7Z" fill="#f05a4e" stroke="#f05a4e" stroke-width="0.2"/><path d="M55.924,127.6c-.045-.1-.16-.209-.446-.209h-1.67c-.278,0-.458.052-.561.3q-.054.132-.1.265l-.959-2.369-.114-.283c-.073-.181-.148-.368-.223-.552a.45.45,0,0,0-.255-.24.565.565,0,0,0-.429,0,.5.5,0,0,0-.261.261c-.553,1.357-1.111,2.735-1.651,4.069l-.231.571-.253-.626-1.032-2.553a.477.477,0,0,0-.476-.3H47.25a.474.474,0,0,0-.474.3l-.117.277c-.123.288-.251.587-.365.883h0a.468.468,0,0,1-.073,0c-.371-.007-.747,0-1.111,0h-.191a.554.554,0,0,0-.41.144.316.316,0,0,0-.087.244c.013.165.157.341.517.341h1.569c.33,0,.5-.032.623-.329l.111-.262.19.47.343.85q.384.951.77,1.9a.461.461,0,0,0,.45.286h.027a.484.484,0,0,0,.48-.31l.539-1.334q.632-1.566,1.264-3.129l.069-.17.666,1.649.346.856q.141.349.283.7a.493.493,0,0,0,.552.277.446.446,0,0,0,.4-.289c.058-.147.118-.293.177-.44.1-.236.194-.48.289-.722h1.367a.522.522,0,0,0,.437-.168A.365.365,0,0,0,55.924,127.6Z" transform="translate(-42.061 -118.181)" fill="#f05a4e" stroke="#f05a4e" stroke-width="0.2"/></g></g></svg>