<svg xmlns="http://www.w3.org/2000/svg" width="28" height="28" viewBox="0 0 28 28"><g transform="translate(8512 11506)"><g transform="translate(-8512.436 -11505.779)"><g transform="translate(0.436 -0.22)"><g fill="none" stroke="#c3d8e8" stroke-linejoin="round" stroke-width="1"><rect width="28" height="28" rx="8" stroke="none"/><rect x="0.5" y="0.5" width="27" height="27" rx="7.5" fill="none"/></g></g></g><g transform="translate(-8533.137 -11500.949)"><path d="M41.949,3.509a1.6,1.6,0,0,0-1.587-1.027c-.4,0-.811,0-1.206,0h-.6v-.3a1.608,1.608,0,0,0-.7-1.417,2.28,2.28,0,0,0-.512-.228c-.074-.026-.151-.053-.223-.083L37.1.44H33.188L33.17.446l-.029.011-.028.01a1.631,1.631,0,0,0-1.371,1.448c-.016.154-.022.311-.028.463a.761.761,0,0,1,0,.1h-.955c-.354,0-.722,0-1.081.022a1.6,1.6,0,0,0-.426,3.1c.071.026.077.034.077.11,0,1.924,0,3.88,0,5.773v1.749c0,.676-.006,1.375.007,2.063a2.147,2.147,0,0,0,2.175,2.162h.025c1.308-.014,2.643-.011,3.932-.008h2.194c.392,0,.8,0,1.2,0a2.016,2.016,0,0,0,1.7-.907,2.379,2.379,0,0,0,.4-1.414V12.754c0-2.293,0-4.665,0-7,0-.114.015-.136.111-.171a1.558,1.558,0,0,0,.865-.847,1.576,1.576,0,0,0,.016-1.229ZM36.934,1.464a.6.6,0,0,1,.591.55,2.968,2.968,0,0,1,.006.378v.076h-4.8V2.384a2.74,2.74,0,0,1,.026-.417.6.6,0,0,1,.587-.5C34.631,1.455,35.8,1.455,36.934,1.464ZM30.342,15.14V5.711h9.592v9.416a1.4,1.4,0,0,1-.232.847,1.018,1.018,0,0,1-.866.455c-2.207,0-4.812.005-7.407,0a1.086,1.086,0,0,1-1.064-.951A2.134,2.134,0,0,1,30.342,15.14Zm10.7-11a.569.569,0,0,1-.509.536,2.266,2.266,0,0,1-.249.011H29.972a1.368,1.368,0,0,1-.3-.023.585.585,0,0,1,.049-1.144,1.548,1.548,0,0,1,.243-.016H40.32a1.262,1.262,0,0,1,.3.028.576.576,0,0,1,.419.608Z" transform="translate(0 0)" fill="#f05a4e" stroke="#f05a4e" stroke-width="0.2"/><path d="M100.4,115.495a.471.471,0,0,0,.408.358.6.6,0,0,0,.089.007.431.431,0,0,0,.4-.228.834.834,0,0,0,.091-.379c0-.951,0-1.917,0-2.851v-4.36a1.066,1.066,0,0,0-.012-.2.5.5,0,0,0-.569-.411c-.276.038-.435.256-.435.6v7.222A.956.956,0,0,0,100.4,115.495Z" transform="translate(-68.065 -100.9)" fill="#f05a4e" stroke="#f05a4e" stroke-width="0.2"/><path d="M141.062,112.3v2.892a1.139,1.139,0,0,0,.021.253.5.5,0,0,0,.476.387h.009a.5.5,0,0,0,.484-.389,1.126,1.126,0,0,0,.026-.253v-7.156a1.04,1.04,0,0,0-.034-.29.478.478,0,0,0-.281-.308.5.5,0,0,0-.431.02.552.552,0,0,0-.272.531v2.731Z" transform="translate(-106.433 -100.873)" fill="#f05a4e" stroke="#f05a4e" stroke-width="0.2"/><path d="M182.385,115.835h.016a.466.466,0,0,0,.333-.129.7.7,0,0,0,.174-.512v-7.155a.681.681,0,0,0-.171-.509.473.473,0,0,0-.35-.13c-.185,0-.5.091-.5.638v7.155C181.889,115.74,182.2,115.83,182.385,115.835Z" transform="translate(-144.94 -100.874)" fill="#f05a4e" stroke="#f05a4e" stroke-width="0.2"/></g></g></svg>