<svg xmlns="http://www.w3.org/2000/svg" width="16" height="16" viewBox="0 0 16 16"><path d="M.19,15.64a1,1,0,0,1-.148-.884c.367-1.336.763-2.774,1.177-4.234a1.369,1.369,0,0,1,.339-.579c3.5-3.5,6.386-6.394,9.1-9.1A2.8,2.8,0,0,1,12.634,0a2.846,2.846,0,0,1,1.992.848l.038.039L14.7.923a3.6,3.6,0,0,1,1.294,2.035L16,2.995v.788l-.018.06-.03.1c-.023.079-.047.161-.073.243a2.891,2.891,0,0,1-.729,1.177L13.54,6.975c-2.45,2.449-4.984,4.98-7.479,7.467a1.376,1.376,0,0,1-.579.338c-1.476.419-2.97.83-4.236,1.178a1.18,1.18,0,0,1-.3.042A.932.932,0,0,1,.19,15.64Zm2.123-1.953,1.174-.325-.849-.848Zm1.253-3.036,1.759,1.757,6.864-6.857L10.431,3.793ZM12.3,2a2.938,2.938,0,0,0-.491.381l1.8,1.8a3.183,3.183,0,0,0,.309-.3.794.794,0,0,0,0-1.017,6.6,6.6,0,0,0-.764-.763.767.767,0,0,0-.491-.2A.716.716,0,0,0,12.3,2Z" fill="#f05a4e"/></svg>