<svg xmlns="http://www.w3.org/2000/svg" width="24" height="24" viewBox="0 0 24 24"><g transform="translate(-0.436 0.22)"><g transform="translate(0.436 -0.22)"><g fill="#f05a4e" stroke="none" stroke-linejoin="round" stroke-width="1"><rect width="24" height="24" rx="5" stroke="none"/><rect x="0.5" y="0.5" width="23" height="23" rx="4.5" fill="none"/></g></g><g transform="translate(-4776.832 -3680.886)"><g transform="translate(4783.116 3686.522)"><path d="M4783.625,3698.809a.628.628,0,0,1-.189-.028.447.447,0,0,1-.267-.222.565.565,0,0,1-.019-.437c.258-.781.521-1.574.776-2.341l.1-.305c.151-.456.308-.927.466-1.389a.755.755,0,0,1,.175-.286c1.854-1.859,3.742-3.747,5.568-5.573l1.157-1.157a1.777,1.777,0,0,1,1.285-.548,1.8,1.8,0,0,1,1.289.514c.3.29.6.59.884.879a1.816,1.816,0,0,1,0,2.63c-1.069,1.072-2.158,2.161-3.211,3.214l-1.308,1.307-.487.487c-.549.55-1.117,1.119-1.68,1.674a.994.994,0,0,1-.368.227c-1.3.44-2.636.885-3.959,1.32A.71.71,0,0,1,4783.625,3698.809Zm.8-1.3,2.354-.784-1.567-1.568Zm3.322-1.333,5.443-5.444-1.981-1.982-5.443,5.444Zm6.2-6.17c.087-.081.169-.157.243-.241a.777.777,0,0,0,.011-1.043c-.308-.338-.645-.674-1-1a.684.684,0,0,0-.474-.187.976.976,0,0,0-.293.049,1.159,1.159,0,0,0-.466.353l-.042.044Z" transform="translate(-4783.116 -3686.522)" fill="#fff"/></g></g></g></svg>