<svg xmlns="http://www.w3.org/2000/svg" width="28" height="28" viewBox="0 0 28 28"><g transform="translate(16544 23739)"><g transform="translate(-7950 -12233)"><g transform="translate(34.001)"><g transform="translate(-8627.831 -11505.779)"><g transform="translate(-0.17 -0.221)" fill="none" stroke="#c3d8e8" stroke-linejoin="round" stroke-width="1"><rect width="28" height="28" rx="8" stroke="none"/><rect x="0.5" y="0.5" width="27" height="27" rx="7.5" fill="none"/></g></g></g></g><g transform="translate(-16536.5 -23733.098)"><path d="M-10199.475-51.353v15.339a.7.7,0,0,1-.427.427h-12.152a.633.633,0,0,1-.424-.679c0-5.619,0-9.218,0-14.836,0-.488.188-.677.676-.677q5.8,0,11.6-.005A.673.673,0,0,1-10199.475-51.353Zm-1.086,14.692V-50.7h-1.871v.2c0,.587,0,1.174,0,1.76a.543.543,0,0,1-.6.606q-2.938,0-5.879,0a.547.547,0,0,1-.608-.619c0-.587,0-1.174,0-1.76V-50.7h-1.874v14.041Zm-7.887-12.555h4.939V-50.7h-4.939Z" transform="translate(10212.478 51.785)" fill="#f05a4e"/><path d="M-10200.2-51.885h0a.772.772,0,0,1,.814.5l.007.018v15.378l-.007.018a.8.8,0,0,1-.487.484l-.016.005h-12.187l-.018-.006a.724.724,0,0,1-.488-.773c0-4.64,0-7.915,0-12.062V-51.1c0-.545.231-.777.775-.777h4.925C-10204.905-51.879-10202.573-51.88-10200.2-51.885Zm.626.551a.573.573,0,0,0-.622-.351v-.1l0,.1c-2.373,0-4.705.006-6.674.006h-4.925c-.431,0-.576.146-.576.577v2.774c0,4.147,0,7.422,0,12.062a.535.535,0,0,0,.343.579h12.116a.6.6,0,0,0,.345-.347Zm-2.957.53h2.07v14.242h-11.036V-50.8h2.073v.874c0,.391,0,.782,0,1.173,0,.354.163.519.509.519q2.943,0,5.879,0a.445.445,0,0,0,.5-.506c0-.419,0-.845,0-1.257Zm1.871.2h-1.672v.6c0,.412,0,.838,0,1.258a.642.642,0,0,1-.7.705q-2.936,0-5.879,0a.644.644,0,0,1-.708-.719c0-.391,0-.783,0-1.174,0-.2,0-.391,0-.587V-50.6h-1.675v13.841h10.638Zm-7.887-.2h5.139v1.686h-5.139Zm4.939.2h-4.74v1.287h4.74Z" transform="translate(10212.478 51.785)" fill="#f05a4e"/><path d="M-10141.863,128.36c-.262.263-.514.52-.77.773a.525.525,0,0,1-.629.145.514.514,0,0,1-.191-.816c.406-.438.832-.86,1.266-1.271a.508.508,0,0,1,.734.065q.732.727,1.457,1.459a1.429,1.429,0,0,1,.105.138l2.5-2.508c-.209,0-.437.005-.664,0a.532.532,0,0,1-.533-.709.482.482,0,0,1,.463-.351c.711-.006,1.422-.009,2.131,0a.5.5,0,0,1,.488.515q.018,1.031,0,2.063a.508.508,0,0,1-.549.526.516.516,0,0,1-.512-.561c0-.219,0-.438-.006-.658,0,0,0-.009-.023-.036-.045.042-.092.08-.133.123l-2.664,2.666a.555.555,0,0,1-.9,0q-.712-.71-1.42-1.421C-10141.756,128.459-10141.8,128.416-10141.863,128.36Z" transform="translate(10146.04 -118.968)" fill="#f05a4e"/><path d="M-10139.842,130.255a.742.742,0,0,1-.52-.26q-.6-.6-1.2-1.2l-.217-.217c-.025-.025-.052-.049-.08-.076l-.2.2c-.173.174-.335.339-.5.505a.626.626,0,0,1-.741.164.655.655,0,0,1-.37-.463.581.581,0,0,1,.147-.512c.369-.4.785-.816,1.271-1.275a.551.551,0,0,1,.383-.156.7.7,0,0,1,.49.223c.492.488.99.989,1.458,1.459a.7.7,0,0,1,.047.055l.763-.764,1.486-1.488h-.165c-.1,0-.182,0-.26,0a.684.684,0,0,1-.555-.279.624.624,0,0,1-.07-.562.579.579,0,0,1,.557-.419c.858-.008,1.513-.007,2.133,0a.6.6,0,0,1,.587.614c.012.685.012,1.38,0,2.066a.608.608,0,0,1-.632.625h-.019a.618.618,0,0,1-.609-.659c0-.147,0-.293,0-.44v-.049q-.674.673-1.343,1.344l-1.309,1.309A.748.748,0,0,1-10139.842,130.255Zm-2.023-2.036.071.068.067.063c.031.029.06.056.087.083l.217.217,1.2,1.2a.56.56,0,0,0,.379.2.567.567,0,0,0,.383-.2l1.308-1.309q.678-.679,1.356-1.357c.027-.028.058-.056.087-.082l.048-.043.083-.077.074.1a.135.135,0,0,1,.034.084c0,.072,0,.145,0,.218,0,.146,0,.292,0,.438a.42.42,0,0,0,.414.463h.015a.409.409,0,0,0,.433-.428c.012-.683.012-1.376,0-2.059a.4.4,0,0,0-.39-.417c-.621-.008-1.274-.008-2.129,0a.382.382,0,0,0-.369.283.419.419,0,0,0,.045.384.487.487,0,0,0,.4.194c.075,0,.156,0,.254,0l.407,0h.241l-.171.171-1.657,1.66-.926.927-.069-.088c-.011-.013-.022-.03-.034-.047a.709.709,0,0,0-.064-.083c-.467-.47-.965-.97-1.456-1.458a.509.509,0,0,0-.35-.165.353.353,0,0,0-.246.1c-.481.456-.894.87-1.261,1.266a.378.378,0,0,0-.1.337.454.454,0,0,0,.258.32.425.425,0,0,0,.517-.125c.168-.165.33-.33.5-.5l.267-.269Z" transform="translate(10146.04 -118.968)" fill="#f05a4e"/></g></g></svg>