<svg xmlns="http://www.w3.org/2000/svg" width="28" height="28" viewBox="0 0 28 28"><g transform="translate(8662 11506)"><g transform="translate(-8662.09 -11505.779)"><g transform="translate(0.09 -0.221)" fill="none" stroke="#c3d8e8" stroke-linejoin="round" stroke-width="1"><rect width="28" height="28" rx="8" stroke="none"/><rect x="0.5" y="0.5" width="27" height="27" rx="7.5" fill="none"/></g></g><g transform="translate(-8656.619 -11500.38)"><path d="M.413,5.908c.016-.059.032-.117.05-.176A1.871,1.871,0,0,1,2.207,4.406c.352-.006.711,0,1.056,0h.476V2.342A1.858,1.858,0,0,1,5.7.38h5.906a1.848,1.848,0,0,1,1.867,1.558,2.244,2.244,0,0,1,.025.4V4.4h1.458a1.867,1.867,0,0,1,1.9,1.9c0,1.651,0,3.166,0,4.636a1.858,1.858,0,0,1-1.889,1.89H13.5v2.08a1.842,1.842,0,0,1-1.535,1.911l-.01.006-.045.027H5.358l-.1-.028c-.059-.015-.118-.031-.177-.048a1.837,1.837,0,0,1-1.329-1.706c-.01-.516-.009-1.04-.008-1.547v-.693h-1.4A1.849,1.849,0,0,1,.421,11.308l0-.007-.031-.047V6.013ZM3.739,9.729c0-.438.194-.633.629-.634h8.468c.482,0,.661.18.661.664v2.023h1.417a.831.831,0,0,0,.9-.893V6.348a.829.829,0,0,0-.9-.9H2.367a.84.84,0,0,0-.936.929v4.478a.836.836,0,0,0,.926.925H3.739v-.612Q3.738,10.45,3.739,9.729Zm8.713-5.485V2.308a.822.822,0,0,0-.872-.881H5.656a.822.822,0,0,0-.871.881V4.4h7.667Zm-.894,11.562a.829.829,0,0,0,.894-.891V10.157H4.784V14.9a.828.828,0,0,0,.9.9Z" transform="translate(0)" fill="#f05a4e"/><path d="M98.224,244.093a.964.964,0,0,1,.22-.017h3.545c.135,0,.275,0,.413.006a.519.519,0,0,1,.417.24.506.506,0,0,1,.04.468.529.529,0,0,1-.536.334H98.745c-.133,0-.267,0-.4,0a.521.521,0,0,1-.119-1.027Z" transform="translate(-91.408 -230.282)" fill="#f05a4e"/><path d="M99.757,196.321l-.619,0q-.308,0-.625,0a.53.53,0,0,1-.57-.515.5.5,0,0,1,.138-.364.606.606,0,0,1,.434-.173h1.25a.531.531,0,0,1,.562.517.509.509,0,0,1-.14.372A.592.592,0,0,1,99.757,196.321Z" transform="translate(-88.837 -183.161)" fill="#f05a4e"/></g></g></svg>