<svg xmlns="http://www.w3.org/2000/svg" width="28" height="28" viewBox="0 0 28 28"><g transform="translate(-3950 12925)"><g transform="translate(3949.91 -12924.779)"><g transform="translate(0.09 -0.221)" fill="none" stroke="#c3d8e8" stroke-linejoin="round" stroke-width="1"><rect width="28" height="28" rx="8" stroke="none"/><rect x="0.5" y="0.5" width="27" height="27" rx="7.5" fill="none"/></g></g><path d="M8.153,13.1,6.208,11.155,4.264,13.1a.627.627,0,0,1-.887-.887l1.945-1.944L1.874,6.82a.628.628,0,0,1,.444-1.071H5.275a2.247,2.247,0,1,0,0-4.495H1.255V8.441A.627.627,0,1,1,0,8.441V.627A.628.628,0,0,1,.627,0H5.275a3.5,3.5,0,1,1,0,7H3.832L6.208,9.381,8.469,7.12a.627.627,0,0,1,.887.887L7.1,10.268l1.945,1.944a.627.627,0,0,1-.887.887Z" transform="translate(3959 -12918)" fill="#f05a4e"/></g></svg>