<svg xmlns="http://www.w3.org/2000/svg" width="28" height="28" viewBox="0 0 28 28"><g transform="translate(8628.001 11506)"><g transform="translate(-8627.831 -11505.779)"><g transform="translate(-0.17 -0.221)" fill="none" stroke="#c3d8e8" stroke-linejoin="round" stroke-width="1"><rect width="28" height="28" rx="8" stroke="none"/><rect x="0.5" y="0.5" width="27" height="27" rx="7.5" fill="none"/></g></g><g transform="translate(-8669.105 -11523.981)"><path d="M1.91-.6H10.4a2.513,2.513,0,0,1,2.51,2.51v11.5a2.513,2.513,0,0,1-2.51,2.51H1.91A2.513,2.513,0,0,1-.6,13.412V1.91A2.513,2.513,0,0,1,1.91-.6ZM10.4,14.763a1.353,1.353,0,0,0,1.352-1.352V1.91A1.353,1.353,0,0,0,10.4.559H1.91A1.353,1.353,0,0,0,.559,1.91v11.5A1.353,1.353,0,0,0,1.91,14.763Z" transform="translate(48.95 24.32)" fill="#f05a4e"/><path d="M4.723.559H-.021A.579.579,0,0,1-.6-.021.579.579,0,0,1-.021-.6H4.723A.579.579,0,0,1,5.3-.021.579.579,0,0,1,4.723.559Z" transform="translate(54.114 28.115)" fill="#f05a4e"/><path d="M.436.559H-.021A.579.579,0,0,1-.6-.021.579.579,0,0,1-.021-.6H.436a.579.579,0,0,1,.579.579A.579.579,0,0,1,.436.559Z" transform="translate(51.395 28.115)" fill="#f05a4e"/><path d="M4.723.559H-.021A.579.579,0,0,1-.6-.021.579.579,0,0,1-.021-.6H4.723A.579.579,0,0,1,5.3-.021.579.579,0,0,1,4.723.559Z" transform="translate(54.114 31.011)" fill="#f05a4e"/><path d="M4.723.559H-.021A.579.579,0,0,1-.6-.021.579.579,0,0,1-.021-.6H4.723A.579.579,0,0,1,5.3-.021.579.579,0,0,1,4.723.559Z" transform="translate(54.114 33.908)" fill="#f05a4e"/><path d="M4.723.559H-.021A.579.579,0,0,1-.6-.021.579.579,0,0,1-.021-.6H4.723A.579.579,0,0,1,5.3-.021.579.579,0,0,1,4.723.559Z" transform="translate(54.114 36.804)" fill="#f05a4e"/><path d="M.436.559H-.021A.579.579,0,0,1-.6-.021.579.579,0,0,1-.021-.6H.436a.579.579,0,0,1,.579.579A.579.579,0,0,1,.436.559Z" transform="translate(51.395 31.011)" fill="#f05a4e"/><path d="M.436.559H-.021A.579.579,0,0,1-.6-.021.579.579,0,0,1-.021-.6H.436a.579.579,0,0,1,.579.579A.579.579,0,0,1,.436.559Z" transform="translate(51.395 33.908)" fill="#f05a4e"/><path d="M.436.559H-.021A.579.579,0,0,1-.6-.021.579.579,0,0,1-.021-.6H.436a.579.579,0,0,1,.579.579A.579.579,0,0,1,.436.559Z" transform="translate(51.395 36.804)" fill="#f05a4e"/></g></g></svg>